<svg xmlns="http://www.w3.org/2000/svg" width="44.496" height="43.384" viewBox="0 0 44.496 43.384">
  <path id="Icon_awesome-github" data-name="Icon awesome-github" d="M14.883,35.5c0,.179-.206.323-.466.323-.3.027-.5-.117-.5-.323,0-.179.206-.323.466-.323C14.65,35.146,14.883,35.289,14.883,35.5Zm-2.79-.4c-.063.179.117.386.386.44a.421.421,0,0,0,.556-.179c.054-.179-.117-.386-.386-.466A.46.46,0,0,0,12.093,35.092Zm3.965-.153c-.26.063-.44.233-.413.44.027.179.26.3.529.233s.44-.233.413-.413S16.318,34.912,16.058,34.939ZM21.961.563A21.512,21.512,0,0,0,0,22.452,22.491,22.491,0,0,0,15.206,43.91c1.148.206,1.552-.5,1.552-1.085,0-.556-.027-3.624-.027-5.508,0,0-6.28,1.346-7.6-2.673,0,0-1.023-2.611-2.494-3.283,0,0-2.054-1.408.144-1.382a4.735,4.735,0,0,1,3.463,2.315c1.965,3.463,5.257,2.467,6.54,1.875a4.986,4.986,0,0,1,1.435-3.023c-5.015-.556-10.074-1.283-10.074-9.913a6.8,6.8,0,0,1,2.117-5.284A8.476,8.476,0,0,1,10.5,9.856c1.875-.583,6.19,2.422,6.19,2.422a21.193,21.193,0,0,1,11.268,0s4.315-3.014,6.19-2.422a8.472,8.472,0,0,1,.233,6.091c1.435,1.588,2.315,2.826,2.315,5.284,0,8.657-5.284,9.348-10.3,9.913a5.305,5.305,0,0,1,1.525,4.163c0,3.023-.027,6.764-.027,7.5,0,.583.413,1.292,1.552,1.085A22.284,22.284,0,0,0,44.5,22.452C44.5,10.009,34.4.563,21.961.563ZM8.72,31.5c-.117.09-.09.3.063.466.144.144.35.206.466.09.117-.09.09-.3-.063-.466C9.043,31.45,8.836,31.387,8.72,31.5Zm-.969-.727c-.063.117.027.26.206.35a.267.267,0,0,0,.386-.063c.063-.117-.027-.26-.206-.35C7.957,30.66,7.814,30.687,7.751,30.777Zm2.907,3.194c-.144.117-.09.386.117.556.206.206.466.233.583.09.117-.117.063-.386-.117-.556C11.043,33.854,10.774,33.827,10.658,33.97ZM9.635,32.652c-.144.09-.144.323,0,.529s.386.3.5.206a.409.409,0,0,0,0-.556C10.012,32.625,9.778,32.535,9.635,32.652Z" transform="translate(0 -0.563)" fill="#222066"/>
</svg>
